<?xml version="1.0" encoding="UTF-8"?>
<svg xmlns="http://www.w3.org/2000/svg" xmlns:xlink="http://www.w3.org/1999/xlink" width="26px" height="26px" viewBox="0 0 26 26" version="1.1">
<defs>
<filter id="alpha" filterUnits="objectBoundingBox" x="0%" y="0%" width="100%" height="100%">
  <feColorMatrix type="matrix" in="SourceGraphic" values="0 0 0 0 1 0 0 0 0 1 0 0 0 0 1 0 0 0 1 0"/>
</filter>
<mask id="mask0">
  <g filter="url(#alpha)">
<rect x="0" y="0" width="26" height="26" style="fill:rgb(0%,0%,0%);fill-opacity:0.964706;stroke:none;"/>
  </g>
</mask>
<clipPath id="clip1">
  <rect x="0" y="0" width="26" height="26"/>
</clipPath>
<g id="surface5" clip-path="url(#clip1)">
<path style=" stroke:none;fill-rule:evenodd;fill:#6aa0f6;fill-opacity:1;" d="M 8.675781 3.363281 C 8.9375 3.359375 9.191406 3.398438 9.4375 3.476562 C 9.578125 3.4375 9.71875 3.410156 9.863281 3.390625 C 11.519531 3.382812 13.179688 3.371094 14.835938 3.363281 C 16.609375 3.355469 18.378906 3.382812 20.148438 3.449219 C 21.148438 3.832031 21.550781 4.554688 21.363281 5.625 C 20.179688 9.5625 18.992188 13.5 17.804688 17.4375 C 17.632812 18.125 17.320312 18.738281 16.871094 19.273438 C 16.546875 19.480469 16.1875 19.59375 15.796875 19.613281 C 11.898438 19.632812 7.996094 19.652344 4.097656 19.667969 C 3.816406 19.820312 3.75 20.035156 3.898438 20.320312 C 4.195312 20.859375 4.660156 21.132812 5.285156 21.140625 C 9.277344 21.175781 13.273438 21.175781 17.265625 21.140625 C 18.003906 21.0625 18.425781 20.65625 18.539062 19.925781 C 19.726562 16.023438 20.914062 12.125 22.101562 8.222656 C 22.207031 7.914062 22.253906 7.59375 22.242188 7.261719 C 22.734375 7.390625 23.085938 7.691406 23.285156 8.167969 C 23.324219 8.636719 23.324219 9.109375 23.285156 9.582031 C 22.117188 13.425781 20.949219 17.265625 19.78125 21.109375 C 19.378906 22.054688 18.671875 22.628906 17.664062 22.835938 C 13.5 22.871094 9.335938 22.871094 5.171875 22.835938 C 3.964844 22.570312 3.089844 21.882812 2.542969 20.773438 C 2.378906 20.414062 2.316406 20.035156 2.34375 19.640625 C 2.367188 19.121094 2.425781 18.601562 2.515625 18.085938 C 2.457031 17.835938 2.449219 17.578125 2.488281 17.324219 C 3.1875 16.382812 3.667969 15.335938 3.929688 14.1875 C 3.796875 13.722656 3.921875 13.335938 4.296875 13.027344 C 4.722656 12.277344 5.015625 11.476562 5.171875 10.625 C 5.121094 10.390625 5.109375 10.15625 5.144531 9.917969 C 5.347656 9.621094 5.574219 9.339844 5.820312 9.070312 C 6.171875 8.410156 6.425781 7.710938 6.585938 6.980469 C 6.527344 6.71875 6.519531 6.453125 6.554688 6.1875 C 6.730469 5.933594 6.917969 5.6875 7.121094 5.453125 C 7.351562 4.9375 7.597656 4.429688 7.855469 3.929688 C 8.0625 3.636719 8.335938 3.445312 8.675781 3.363281 Z M 10.429688 6.699219 C 12.972656 6.6875 15.515625 6.699219 18.058594 6.726562 C 18.222656 6.730469 18.300781 6.816406 18.285156 6.980469 C 18.210938 7.308594 18.105469 7.628906 17.972656 7.941406 C 17.882812 8.070312 17.757812 8.15625 17.605469 8.195312 C 15.007812 8.234375 12.40625 8.234375 9.804688 8.195312 C 9.710938 8.152344 9.652344 8.078125 9.636719 7.96875 C 9.742188 7.660156 9.84375 7.347656 9.949219 7.035156 C 10.074219 6.863281 10.234375 6.75 10.429688 6.699219 Z M 9.355469 9.917969 C 11.898438 9.910156 14.441406 9.917969 16.984375 9.949219 C 17.140625 9.960938 17.234375 10.046875 17.265625 10.203125 C 17.152344 10.542969 17.027344 10.882812 16.898438 11.21875 C 16.832031 11.308594 16.746094 11.371094 16.644531 11.417969 C 14.007812 11.457031 11.371094 11.457031 8.734375 11.417969 C 8.652344 11.363281 8.617188 11.289062 8.621094 11.191406 C 8.703125 10.898438 8.789062 10.605469 8.875 10.316406 C 8.980469 10.109375 9.136719 9.976562 9.355469 9.917969 Z M 9.355469 9.917969 "/>
</g>
</defs>
<g id="surface1">
<use xlink:href="#surface5" mask="url(#mask0)"/>
</g>
</svg>
